<svg width="80" height="80" viewBox="0 0 80 80" fill="none" xmlns="http://www.w3.org/2000/svg">
<path d="M76.6667 70H73.3333V43.3334H66.6667V70H53.3333V43.3334H46.6667V70H33.3333V43.3334H26.6667V70H13.3333V43.3334H6.66667V70H3.33333C1.49333 70 0 71.49 0 73.3334C0 75.1767 1.49333 76.6667 3.33333 76.6667H76.6667C78.5067 76.6667 80 75.1767 80 73.3334C80 71.49 78.5067 70 76.6667 70Z" fill="#7ECCF3"/>
<path d="M78.2633 20.4067L41.5967 0.406709C40.6 -0.133291 39.4 -0.133291 38.4033 0.406709L1.73667 20.4067C0.666667 20.99 0 22.1134 0 23.3334V33.3334C0 35.1767 1.49333 36.6667 3.33333 36.6667H76.6667C78.5067 36.6667 80 35.1767 80 33.3334V23.3334C80 22.1134 79.3333 20.99 78.2633 20.4067ZM40 26.6667C36.3167 26.6667 33.3333 23.6834 33.3333 20C33.3333 16.3167 36.3167 13.3334 40 13.3334C43.6833 13.3334 46.6667 16.3167 46.6667 20C46.6667 23.6834 43.6833 26.6667 40 26.6667Z" fill="#7ECCF3"/>
</svg>
