<svg width="80" height="80" viewBox="0 0 80 80" fill="none" xmlns="http://www.w3.org/2000/svg">
<path d="M66.667 0H13.3337C9.65033 0 6.66699 2.98333 6.66699 6.66667V46.6667C6.66699 54.7133 12.4037 61.4467 20.0003 62.9967V76.6667C20.0003 78.5067 21.4937 80 23.3337 80H56.667C58.507 80 60.0003 78.5067 60.0003 76.6667V62.9967C67.597 61.4467 73.3337 54.7167 73.3337 46.6667V6.66667C73.3337 2.98333 70.3503 0 66.667 0ZM26.667 46.6667H33.3337V73.3333H26.667V46.6667ZM53.3337 73.3333H43.3337V46.6667H53.3337V73.3333ZM60.0003 26.6667H20.0003V13.3333H60.0003V26.6667Z" fill="#79B9F6"/>
</svg>
