<svg width="80" height="80" viewBox="0 0 80 80" fill="none" xmlns="http://www.w3.org/2000/svg">
<path d="M41.8369 48.41V54.8933C44.1969 54.4933 45.3769 53.47 45.3769 51.82C45.3769 50.0633 43.4436 49.1467 41.8369 48.41Z" fill="#65CFF9"/>
<path d="M34.9102 36.0167C34.9102 37.8567 36.5735 38.68 38.2702 39.4267V33.3067C36.0302 33.6367 34.9102 34.54 34.9102 36.0167Z" fill="#65CFF9"/>
<path d="M60.0003 10L50.0003 0L40.0003 10L30.0003 0L20.0003 10L6.66699 0V76.6667C6.66699 78.51 8.16033 80 10.0003 80H70.0003C71.8403 80 73.3337 78.51 73.3337 76.6667V0L60.0003 10ZM41.837 61.0933V66.4333H38.2703V61.2C34.0337 61.1133 30.317 60.3667 27.1237 58.96V52.0867C30.1237 53.57 34.8837 54.87 38.2703 55.08V47.0067C32.307 44.6933 27.0737 42.45 27.0737 36.0167C27.0737 30.1733 32.4337 27.4267 38.2703 26.85V22.8633H41.837V26.7433C45.8103 26.9167 49.407 27.7167 52.617 29.14L50.1703 35.2333C47.4637 34.1233 44.6837 33.4467 41.837 33.2033V40.8867C48.1637 43.32 53.217 45.5367 53.217 51.4333C53.217 57.65 48.0537 60.5233 41.837 61.0933Z" fill="#65CFF9"/>
</svg>
